# xmcd
#
# Track frame offsets:
# 150
# 13616
# 22597
# 41654
# 56606
# 69979
# 79491
# 97639
# 113530
# 133830
# 149538
# 163168
# 176716
#
# Disc length: 2514 seconds
#
# Revision: 0
# Processed by: cddbd v1.5.2PL0 Copyright (c) Steve Scherf et al.
# Submitted via: Audion 3.0.2 (http://www.panic.com/audion/)
#
DISCID=a509d00d
DTITLE=JACK BEAZLY - SUPER MC
DYEAR=1900
DGENRE=
TTITLE0=SUPER MC
TTITLE1=DONT YOU WISH
TTITLE2=POWERFUL MAN
TTITLE3=FAST FOOD
TTITLE4=BACK THEN
TTITLE5=KNIGHT RIDER
TTITLE6=CALL OUT
TTITLE7=WHAT I KNOW
TTITLE8=SUCK MY %ICK ^ITCH
TTITLE9=HOLD ON
TTITLE10=WHO KNOWS
TTITLE11=FINAL COUNTDOWN
TTITLE12=*BONUS - HELLO WORLD
EXTD=
EXTT0=
EXTT1=
EXTT2=
EXTT3=
EXTT4=
EXTT5=
EXTT6=
EXTT7=
EXTT8=
EXTT9=
EXTT10=
EXTT11=
EXTT12=
PLAYORDER=
